<svg viewBox="0 0 210 18" fill="none" xmlns="http://www.w3.org/2000/svg">
<path d="M3.648 17.592V11.016H9.96V7.872H3.648V3.528H11.136V0.36H0V17.592H3.648Z" fill="currentColor"/>
<path d="M21.7526 11.112L27.8966 0.36H24.2246L20.0486 7.776L15.9446 0.36H12.0086L18.1046 11.112V17.592H21.7526V11.112Z" fill="currentColor"/>
<path d="M33.4605 17.592V11.496H35.7405L39.6285 17.592H43.9725L39.5325 10.944C41.9805 10.128 43.4205 8.28 43.4205 5.952C43.4205 2.376 40.9005 0.36 36.5565 0.36H29.8125V17.592H33.4605ZM33.4605 3.384H36.3885C38.5965 3.384 39.7725 4.248 39.7725 5.952C39.7725 7.632 38.5965 8.496 36.3885 8.496H33.4605V3.384Z" fill="currentColor"/>
<path d="M49.8902 17.592V11.496H52.1702L56.0582 17.592H60.4022L55.9622 10.944C58.4102 10.128 59.8502 8.28 59.8502 5.952C59.8502 2.376 57.3302 0.36 52.9862 0.36H46.2422V17.592H49.8902ZM49.8902 3.384H52.8182C55.0262 3.384 56.2022 4.248 56.2022 5.952C56.2022 7.632 55.0262 8.496 52.8182 8.496H49.8902V3.384Z" fill="currentColor"/>
<path d="M74.2639 14.424H66.3199V10.296H73.3759V7.152H66.3199V3.528H74.0959V0.36H62.6719V17.592H74.2639V14.424Z" fill="currentColor"/>
<path d="M89.9256 17.592H92.9736L97.5336 6.048V17.592H100.846V0.36H96.4776L91.4616 13.128L86.4696 0.36H82.1016V17.592H85.4136V6.144L89.9256 17.592Z" fill="currentColor"/>
<path d="M115.887 17.592H119.799L113.367 0.36H109.383L102.903 17.592H106.575L107.895 13.896H114.591L115.887 17.592ZM111.279 4.344L113.583 10.992H108.927L111.279 4.344Z" fill="currentColor"/>
<path d="M128.763 17.952C134.259 17.952 137.667 13.92 137.451 8.304H128.571V11.208H133.563C133.083 13.344 131.475 14.856 128.931 14.856C125.475 14.856 123.627 12.312 123.627 9C123.627 5.304 125.739 3.264 128.523 3.264C130.827 3.264 132.411 4.584 132.939 6.336H137.235C136.107 2.592 132.987 0 128.619 0C123.579 0 119.883 3.816 119.883 8.904C119.883 14.232 123.771 17.952 128.763 17.952Z" fill="currentColor"/>
<path d="M150.598 17.592H154.51L148.078 0.36H144.094L137.614 17.592H141.286L142.606 13.896H149.302L150.598 17.592ZM145.99 4.344L148.294 10.992H143.638L145.99 4.344Z" fill="currentColor"/>
<path d="M169.401 17.592V14.448H160.257L169.113 3.288V0.36H155.841V3.504H164.625L155.817 14.712V17.592H169.401Z" fill="currentColor"/>
<path d="M175.703 17.592V0.36H172.055V17.592H175.703Z" fill="currentColor"/>
<path d="M190.459 17.592H194.035V0.36H190.675V11.784L183.163 0.36H179.227V17.592H182.563V5.568L190.459 17.592Z" fill="currentColor"/>
<path d="M209.17 14.424H201.226V10.296H208.282V7.152H201.226V3.528H209.002V0.36H197.578V17.592H209.17V14.424Z" fill="currentColor"/>
</svg>
